# xmcd
#
# Track frame offsets:
#	150
#	15619
#	31385
#	47459
#	68891
#	84407
#	97752
#	113973
#	134021
#	147481
#
# Disc length: 2216 seconds
#
# Revision: 1
# Processed by: cddbd v1.5.2PL0 Copyright (c) Steve Scherf et al.
# Submitted via: audiograbber 1.83.01
#
DISCID=8208a60a
DTITLE=Various Artist - Privilege - Best Of Vol. 02
DYEAR=1900
DGENRE=Club
TTITLE0=Tereza - Fly me to the moon
TTITLE1=Gazebo - I like Chopin '98
TTITLE2=Fun In Magic - Fame
TTITLE3=Carola - Can't take my eyes off of you
TTITLE4=La Sciara - A Maria
TTITLE5=Lorna - Papi chulo...Te traigo el mmmm
TTITLE6=Colours - La noche
TTITLE7=La Fuertezza - 2 the night
TTITLE8=Fiorello - Azzurro
TTITLE9=Velvet 99 - These boots are made for walkin'
EXTD=
EXTT0=
EXTT1=
EXTT2=
EXTT3=
EXTT4=
EXTT5=
EXTT6=
EXTT7=
EXTT8=
EXTT9=
PLAYORDER=
